<?xml version="1.0" encoding="utf-8"?>
<!-- Generator: Adobe Illustrator 25.4.3, SVG Export Plug-In . SVG Version: 6.00 Build 0)  -->
<svg version="1.1" id="Layer_1" xmlns="http://www.w3.org/2000/svg" xmlns:xlink="http://www.w3.org/1999/xlink" x="0px" y="0px"
	 viewBox="0 0 1366 768" style="enable-background:new 0 0 1366 768;" xml:space="preserve">
<style type="text/css">
	.st0{fill:#FFFFFF;}
</style>
<g>
	<polygon class="st0" points="170.86,173.24 391.14,173.24 369.11,278.19 281,278.19 277.11,341.68 217.51,280.78 148.84,279.49 	
		"/>
	<polygon class="st0" points="432.6,358.53 472.77,171.94 527.19,171.94 573.84,282.08 598.45,171.94 652.87,171.94 614,358.53 
		560.88,358.53 507.75,245.8 484.43,358.53 	"/>
	<polygon class="st0" points="831.68,209.52 835.57,171.94 680.08,171.94 646.4,358.53 805.77,358.53 810.95,323.54 709.89,324.84 
		713.77,284.67 813.54,284.67 813.54,249.69 721.55,249.69 728.03,209.52 	"/>
	<polygon class="st0" points="847.88,171.29 894.53,171.29 894.53,289.2 951.54,171.29 1005.96,171.29 1008.55,289.2 
		1060.38,175.18 1114.8,175.18 1027.99,364.36 969.68,364.36 967.09,243.85 908.78,357.88 849.18,357.88 	"/>
	<path class="st0" d="M1276.77,224.42c0,0-2.59-55.72-77.74-57.01c0,0-73.86-2.59-82.93,57.01c0,0-9.07,50.53,63.49,59.6
		c0,0,37.58,3.89,25.91,34.98c0,0-12.96,24.62-45.35,9.07c0,0-16.84-9.07-14.25-28.51h-53.12c0,0-5.18,64.79,68.67,72.56
		c0,0,90.7,12.96,99.77-69.97c0,0,2.59-44.05-49.24-55.72c0,0-47.94-7.77-40.17-33.69c0,0,7.77-23.32,36.28-11.66
		c0,0,15.55,7.77,11.66,23.32H1276.77z"/>
	<path class="st0" d="M777.91,462.83c10.37-53.12-27.21-58.31-27.21-58.31H621.13l-41.46,186.58h59.6l14.25-80.33l7.77,1.3
		l42.76,79.04h59.6l-38.87-79.04C775.32,501.7,777.91,462.83,777.91,462.83z M709.24,478.38H660l9.07-41.46h37.58
		c20.73,0,20.73,14.25,20.73,14.25C727.38,478.38,709.24,478.38,709.24,478.38z"/>
	<path class="st0" d="M873.8,408.41c-29.8,0-49.24-1.3-49.24-1.3s-12.96,67.38-19.44,130.87c0,0-2.59,68.67,84.22,62.19
		c0,0,50.53,0,68.67-54.42c0,0,11.66-44.05,29.8-137.35l-47.94-1.3c0,0-12.96,71.26-25.91,123.09c0,0-9.07,28.51-37.58,25.91
		c0,0-22.03-1.3-22.03-25.91C854.36,530.21,862.13,486.15,873.8,408.41z"/>
	<polygon class="st0" points="1026.69,403.23 1097.96,403.23 1105.73,522.44 1165.33,403.23 1239.19,404.52 1199.02,592.4 
		1152.38,592.4 1184.77,448.58 1114.8,592.4 1073.34,592.4 1061.68,448.58 1033.17,592.4 986.52,591.11 	"/>
	<polygon class="st0" points="309.51,589.17 89.23,589.17 111.26,484.21 199.37,484.21 203.26,420.72 262.86,481.62 331.53,482.92 	
		"/>
	<path class="st0" d="M514.88,404.52h-94.59l-36.28,186.58h92c0,0,90.7,6.48,99.77-104.95
		C575.78,486.15,584.85,408.41,514.88,404.52z M510.99,530.21c-11.66,23.32-36.28,22.03-36.28,22.03h-28.51l22.03-108.84h32.39
		c12.96-1.3,19.44,10.37,19.44,10.37C534.32,483.56,510.99,530.21,510.99,530.21z"/>
</g>
</svg>
