<svg width="13" height="13" viewBox="0 0 13 13" fill="none" xmlns="http://www.w3.org/2000/svg">
<path fill-rule="evenodd" clip-rule="evenodd" d="M5.64286 1C3.07868 1 1 3.07868 1 5.64286C1 8.20704 3.07868 10.2857 5.64286 10.2857C8.20704 10.2857 10.2857 8.20704 10.2857 5.64286C10.2857 3.07868 8.20704 1 5.64286 1ZM0 5.64286C0 2.52639 2.52639 0 5.64286 0C8.75932 0 11.2857 2.52639 11.2857 5.64286C11.2857 7.02106 10.7916 8.28387 9.97091 9.26381L12.8536 12.1464C13.0488 12.3417 13.0488 12.6583 12.8536 12.8536C12.6583 13.0488 12.3417 13.0488 12.1464 12.8536L9.26381 9.97091C8.28387 10.7916 7.02106 11.2857 5.64286 11.2857C2.52639 11.2857 0 8.75932 0 5.64286Z" fill="white"/>
</svg>
